<svg xmlns="http://www.w3.org/2000/svg" width="64" height="64" viewBox="0 0 24 24" fill="none" stroke="url(#paint0_linear)" stroke-width="2" stroke-linecap="round" stroke-linejoin="round">
  <defs>
    <linearGradient id="paint0_linear" x1="2" y1="2" x2="22" y2="22" gradientUnits="userSpaceOnUse">
      <stop stop-color="#34d399" />
      <stop offset="1" stop-color="#60a5fa" />
    </linearGradient>
  </defs>
  <path d="M14 2H6a2 2 0 0 0-2 2v16a2 2 0 0 0 2 2h12a2 2 0 0 0 2-2V8z" />
  <path d="M14 2v6h6" />
  <line x1="8" y1="13" x2="16" y2="13" />
  <line x1="8" y1="17" x2="16" y2="17" />
  <line x1="8" y1="9" x2="10" y2="9" />
  <path d="M16 10.5c0-2.5 1.5-3.5 3.5-3.5-2 0-3.5-1-3.5-3.5 0 2.5-1.5 3.5-3.5 3.5 2 0 3.5 1 3.5 3.5z" fill="url(#paint0_linear)" stroke="none" />
</svg>
